<svg aria-hidden="true" style="position: absolute; width: 0; height: 0; overflow: hidden;" version="1.1" xmlns="http://www.w3.org/2000/svg" xmlns:xlink="http://www.w3.org/1999/xlink">
<defs>
<symbol id="icon-icon" viewBox="0 0 17 32">
<path d="M0 31.563l17.067-14.933-17.067-14.933v29.867z"></path>
</symbol>

<symbol id="icon-arrow" viewBox="0 0 30 32">
<path d="M29.242 16.215l-3.017-3.017-9.158 9.159v-20.45h-4.267v20.45l-9.158-9.159-3.017 3.017 14.308 14.308 14.308-14.308z"></path>
</symbol>

<symbol id="icon-down" viewBox="0 0 52 32">
<path d="M43.172 3.172l-17.172 17.172-17.172-17.172-5.656 5.656 22.828 22.828 22.828-22.828-5.656-5.656z"></path>
</symbol>

<symbol id="icon-up" viewBox="0 0 52 32">
<path d="M3.172 23.172l5.656 5.656 17.172-17.172 17.172 17.172 5.656-5.656-22.828-22.828-22.828 22.828z"></path>
</symbol>

<symbol id="icon-attantion" viewBox="0 0 32 32">
<path d="M15.927 0.314c-8.609 0-15.613 7.037-15.613 15.686s7.037 15.686 15.686 15.686c8.649 0 15.686-7.037 15.686-15.686s-7.070-15.686-15.76-15.686zM16.001 28.549c-6.919 0-12.549-5.63-12.549-12.549s5.595-12.549 12.475-12.549c6.962 0 12.623 5.63 12.623 12.549s-5.63 12.549-12.549 12.549z"></path>
<path d="M14.432 8.157h3.137v10.98h-3.137v-10.98zM14.432 20.706h3.137v3.137h-3.137v-3.137z"></path>
</symbol>


</defs>
</svg>
