<svg aria-hidden="true" style="position: absolute; width: 0; height: 0; overflow: hidden;" version="1.1" xmlns="http://www.w3.org/2000/svg" xmlns:xlink="http://www.w3.org/1999/xlink">
  <defs>
    <symbol id="icon-logo" viewBox="0 0 73 32">
      <path d="M13.471 6.854c0.258-0.030 0.558 0.028 0.807 0.104 0.563 0.172 1.022 0.54 1.293 1.064 0.282 0.538 0.336 1.167 0.15 1.745-0.236 0.713-0.744 1.071-1.377 1.401l0.007 2.080c0.453 0.138 0.893 0.295 1.304 0.533 0.945 0.548 1.591 1.471 1.862 2.522 0.286 1.102 0.123 2.272-0.453 3.254-0.529 0.89-1.371 1.548-2.38 1.8-1.318 0.329-2.436-0.028-3.569-0.701-0.501 0.535-0.995 1.077-1.484 1.624 0.218 0.515 0.29 1.055 0.145 1.602-0.141 0.535-0.516 0.993-0.996 1.264-0.537 0.304-1.149 0.36-1.739 0.191-0.585-0.167-1.076-0.53-1.362-1.074-0.281-0.535-0.305-1.162-0.123-1.733 0.207-0.649 0.63-1.049 1.224-1.346 0.639-0.25 1.168-0.168 1.791 0.057 0.52-0.547 1.009-1.121 1.534-1.663-0.577-1.131-0.764-2.095-0.464-3.342-0.653-0.305-1.283-0.66-1.937-0.966-0.349 0.363-0.776 0.613-1.277 0.697-0.598 0.101-1.229-0.062-1.72-0.413-0.487-0.353-0.807-0.89-0.886-1.486-0.081-0.578 0.072-1.215 0.442-1.671 0.382-0.47 0.974-0.754 1.572-0.817 0.588-0.057 1.175 0.122 1.63 0.498 0.582 0.487 0.75 1.093 0.82 1.816 0.619 0.38 1.329 0.673 1.974 1.012 0.84-0.993 1.454-1.306 2.678-1.683l0.001-2.064c-0.219-0.088-0.438-0.194-0.629-0.335-0.483-0.357-0.8-0.895-0.878-1.491-0.072-0.593 0.095-1.19 0.465-1.659 0.404-0.507 0.945-0.738 1.572-0.821zM16.171 17.123c-0.125-1.42-1.373-2.473-2.793-2.358-1.433 0.117-2.497 1.378-2.372 2.81s1.393 2.49 2.825 2.355c1.419-0.134 2.465-1.388 2.34-2.808z"></path>
      <path d="M64.564 13.898c0.422 0.001 0.844 0.007 1.266 0.017l-0.002 2.231c0.326-0.253 0.679-0.441 1.092-0.502 0.556-0.084 1.123 0.059 1.572 0.399 0.542 0.409 0.825 1.099 0.908 1.758 0.105 0.835-0.092 1.639-0.607 2.305-0.342 0.33-0.753 0.561-1.226 0.639-0.695 0.114-1.245-0.129-1.787-0.533l-0.002 0.487-1.211-0.002-0.001-6.799zM66.734 16.821c-0.377 0.125-0.638 0.304-0.822 0.666-0.204 0.402-0.218 0.899-0.059 1.318 0.122 0.321 0.349 0.599 0.666 0.742 0.23 0.104 0.447 0.107 0.694 0.093 0.393-0.149 0.658-0.339 0.836-0.733 0.185-0.411 0.183-0.906 0.007-1.32-0.136-0.318-0.377-0.574-0.702-0.7-0.203-0.078-0.407-0.089-0.621-0.066z"></path>
      <path d="M28.297 13.885c0.743 2.289 1.693 4.516 2.418 6.811l-1.369 0.002c-0.16-0.49-0.315-1.045-0.56-1.498-0.16-0.068-0.349-0.045-0.52-0.043-0.66 0.007-1.321 0.004-1.981-0.007-0.207 0.506-0.374 1.026-0.538 1.547l-1.394-0.001c0.728-2.285 1.596-4.541 2.382-6.808 0.52 0.011 1.043-0.001 1.563-0.003zM27.517 15.577c-0.288 0.819-0.557 1.65-0.873 2.459l1.002-0.001 0.779-0.009c-0.11-0.309-0.745-2.313-0.909-2.449z"></path>
      <path d="M57.159 13.9l1.309 0.008c-0.018 1.578-0.004 3.159-0.004 4.737-0 0.651 0.066 1.363-0.007 2.006l-0.072 0.049h-1.227l-0.003-2.914c-0.981-0.027-1.969-0.003-2.951-0.002l0 2.917-1.317-0.003 0.005-6.796 1.312 0.003 0.001 2.779h2.955l-0.002-2.784z"></path>
      <path d="M59.255 15.784c0.434 0.012 0.87 0.008 1.304 0.010-0.005 0.695-0.115 2.613 0.053 3.188 0.066 0.227 0.199 0.434 0.413 0.544 0.322 0.166 0.65 0.070 0.971-0.043 0.142-0.159 0.264-0.307 0.334-0.512 0.23-0.67 0.107-2.388 0.103-3.185 0.414 0.011 0.829 0.002 1.243 0-0.010 0.477-0.002 0.956-0.002 1.433l0.006 3.478c-0.407 0.006-0.814 0.003-1.22-0.009l-0.038-0.044c0.006-0.103 0.007-0.187-0.010-0.29-0.382 0.165-0.721 0.416-1.154 0.424-0.503 0.010-1.048-0.146-1.409-0.508-0.274-0.274-0.441-0.642-0.526-1.015-0.185-0.803-0.076-2.583-0.068-3.472z"></path>
      <path d="M41.659 15.647c0.649-0.051 1.326-0.005 1.85 0.432 0.368 0.306 0.487 0.674 0.526 1.131l-1.173-0.001c-0.068-0.125-0.135-0.271-0.241-0.369-0.169-0.156-0.414-0.237-0.643-0.225-0.178 0.010-0.405 0.081-0.515 0.231-0.067 0.091-0.104 0.186-0.078 0.3 0.133 0.602 1.663 0.527 2.15 0.846 0.31 0.203 0.548 0.567 0.617 0.93 0.069 0.371-0.020 0.755-0.244 1.058-0.374 0.515-0.95 0.701-1.549 0.793-0.555 0.034-1.199-0.115-1.643-0.454-0.416-0.317-0.566-0.706-0.623-1.207 0.395 0.001 0.791-0.003 1.186-0.011 0.023 0.074 0.049 0.146 0.086 0.215 0.172 0.318 0.516 0.388 0.834 0.482 0.21-0.048 0.495-0.102 0.645-0.272 0.090-0.103 0.122-0.281 0.084-0.412-0.146-0.503-1.612-0.562-2.12-0.875-0.301-0.186-0.522-0.456-0.603-0.804-0.072-0.316-0.045-0.671 0.133-0.948 0.321-0.501 0.763-0.707 1.321-0.84z"></path>
      <path d="M49.555 15.645c0.369-0.030 0.731-0.028 1.092 0.070 0.416 0.113 0.857 0.345 1.067 0.738 0.101 0.189 0.179 0.528 0.111 0.738-0.337 0.073-0.748 0.024-1.094 0.020-0.051-0.171-0.094-0.303-0.233-0.422-0.176-0.147-0.405-0.217-0.633-0.192-0.179 0.018-0.408 0.106-0.508 0.266-0.060 0.095-0.084 0.193-0.047 0.303 0.216 0.637 1.511 0.485 2.015 0.773 0.321 0.183 0.589 0.506 0.68 0.867 0.098 0.387 0.033 0.818-0.19 1.151-0.334 0.498-0.864 0.685-1.423 0.793-0.549 0.068-1.185-0.049-1.645-0.366-0.471-0.325-0.613-0.733-0.719-1.266l1.176-0.009c0.071 0.18 0.136 0.32 0.289 0.445 0.203 0.166 0.444 0.242 0.706 0.207 0.203-0.027 0.403-0.12 0.525-0.29 0.079-0.112 0.119-0.247 0.081-0.383-0.147-0.523-1.446-0.491-1.961-0.768-0.348-0.188-0.624-0.5-0.734-0.883-0.094-0.324-0.054-0.662 0.117-0.953 0.285-0.483 0.806-0.719 1.33-0.84z"></path>
      <path d="M35.074 14.434c0.39 0.013 0.784 0.005 1.175 0.007-0.004 0.441 0.002 0.882 0.019 1.323l1.159 0.001-0.003 1.010-1.104-0c0 0.636-0.145 2.276 0.147 2.767 0.228 0.18 0.683 0.112 0.959 0.109l-0.004 0.837c0.003 0.086 0.002 0.13-0.042 0.205-0.154 0.074-0.312 0.091-0.483 0.092-0.448 0.004-1.067-0.077-1.39-0.413-0.647-0.674-0.441-2.657-0.437-3.598l-0.748 0.001 0.002-1.012 0.745 0.005 0.004-1.333z"></path>
      <path d="M45.149 14.429l1.153 0.007c-0.009 0.442 0.010 0.886 0.018 1.327l1.178-0.002-0.002 1.015-1.108-0.001c0.013 0.605-0.135 2.295 0.139 2.753 0.295 0.176 0.664 0.129 0.995 0.128-0.004 0.291 0.002 0.584 0.003 0.876l-0.014 0.111c-0.114 0.121-0.29 0.115-0.445 0.119-0.474 0.011-1.128-0.064-1.471-0.423-0.641-0.671-0.441-2.626-0.436-3.564l-0.789 0c-0.010-0.336-0.006-0.673-0.009-1.009l0.786 0.004 0.002-1.341z"></path>
      <path d="M20.278 13.674c0.061-0.003 0.119-0.004 0.18 0.005 0.188 0.027 0.374 0.118 0.478 0.284 0.11 0.176 0.125 0.409 0.14 0.613 0.075 1.006 0.019 2.053 0.019 3.063-0 0.825 0.091 1.943-0.062 2.737-0.048 0.25-0.214 0.369-0.412 0.504-0.076 0.009-0.155 0.020-0.231 0.015-0.17-0.010-0.331-0.085-0.441-0.215-0.109-0.128-0.106-0.386-0.115-0.548-0.069-1.158-0.011-2.352-0.010-3.513 0.001-0.66-0.090-1.923 0.049-2.512 0.050-0.211 0.239-0.321 0.405-0.433z"></path>
      <path d="M33.645 15.746l0.166-0.002c0.196 0.22 0.099 0.915 0.093 1.203-0.415-0.004-0.807-0.021-1.132 0.281-0.61 0.566-0.404 2.638-0.41 3.47-0.327-0.003-0.964 0.116-1.213-0.091l-0.013-0.206c0.006-1.541-0.033-3.082-0.023-4.623 0.396 0.012 0.793 0.004 1.189 0.002l-0.014 0.681c0.073-0.105 0.146-0.218 0.232-0.314 0.3-0.338 0.707-0.369 1.127-0.399z"></path>
      <path d="M38.147 15.766l1.243 0.001 0.003 4.933-1.258-0.002 0.011-4.932z"></path>
      <path d="M18.54 15.29c0.204 0.038 0.385 0.114 0.504 0.292 0.183 0.274 0.188 2.954 0.096 3.336-0.050 0.209-0.231 0.311-0.403 0.412-0.197-0.012-0.455-0.029-0.586-0.2-0.195-0.253-0.179-3.102-0.068-3.459 0.065-0.207 0.278-0.295 0.456-0.381z"></path>
      <path d="M38.687 13.734c0.369-0.043 0.707 0.215 0.761 0.583s-0.194 0.712-0.56 0.778c-0.247 0.044-0.498-0.050-0.655-0.245s-0.197-0.46-0.102-0.692c0.095-0.232 0.308-0.394 0.556-0.424z"></path>
    </symbol>
    <symbol id="icon-Company-Logo" viewBox="0 0 73 32">
      <path d="M18.932 9.969c0.363-0.042 0.784 0.039 1.134 0.146 0.792 0.241 1.436 0.758 1.818 1.495 0.397 0.756 0.473 1.64 0.211 2.453-0.332 1.002-1.046 1.506-1.936 1.97l0.010 2.923c0.636 0.194 1.255 0.414 1.833 0.748 1.328 0.77 2.236 2.067 2.617 3.544 0.402 1.548 0.174 3.194-0.636 4.574-0.743 1.251-1.927 2.175-3.345 2.529-1.853 0.463-3.424-0.038-5.016-0.985-0.704 0.752-1.399 1.513-2.085 2.282 0.307 0.724 0.409 1.483 0.205 2.253-0.199 0.752-0.726 1.396-1.4 1.777-0.755 0.427-1.616 0.505-2.443 0.268-0.822-0.235-1.512-0.744-1.914-1.508-0.395-0.752-0.429-1.633-0.172-2.436 0.291-0.912 0.885-1.474 1.72-1.891 0.899-0.351 1.641-0.236 2.519 0.080 0.73-0.768 1.418-1.576 2.155-2.338-0.811-1.59-1.074-2.945-0.652-4.697-0.918-0.428-1.803-0.927-2.721-1.356-0.491 0.511-1.091 0.861-1.796 0.98-0.84 0.141-1.726-0.088-2.416-0.581-0.684-0.496-1.134-1.252-1.245-2.090-0.113-0.812 0.101-1.707 0.621-2.348 0.536-0.661 1.369-1.061 2.209-1.149 0.826-0.080 1.65 0.172 2.29 0.7 0.818 0.685 1.055 1.537 1.154 2.552 0.871 0.534 1.867 0.945 2.774 1.421 1.18-1.395 2.043-1.835 3.764-2.366l0.001-2.901c-0.308-0.123-0.615-0.273-0.883-0.47-0.679-0.502-1.125-1.258-1.235-2.095-0.102-0.833 0.134-1.672 0.654-2.33 0.568-0.713 1.328-1.037 2.209-1.154zM22.726 24.401c-0.175-1.996-1.929-3.476-3.926-3.313-2.014 0.164-3.51 1.936-3.334 3.949s1.958 3.499 3.97 3.31c1.994-0.188 3.464-1.95 3.289-3.946z"></path>
      <path d="M39.768 19.85c1.044 3.217 2.38 6.347 3.398 9.573l-1.924 0.002c-0.225-0.689-0.443-1.468-0.787-2.105-0.225-0.096-0.491-0.064-0.731-0.061-0.928 0.009-1.856 0.007-2.784-0.009-0.291 0.711-0.526 1.442-0.757 2.174l-1.959-0.002c1.023-3.212 2.243-6.382 3.348-9.568 0.731 0.016 1.466-0.001 2.197-0.004zM38.671 22.229c-0.405 1.152-0.783 2.319-1.226 3.456l1.409-0.001 1.095-0.012c-0.154-0.433-1.047-3.251-1.277-3.443z"></path>
      <path d="M58.548 22.326c0.912-0.071 1.863-0.007 2.601 0.608 0.517 0.43 0.684 0.947 0.74 1.589l-1.649-0.002c-0.095-0.176-0.19-0.381-0.339-0.519-0.238-0.219-0.582-0.333-0.903-0.316-0.25 0.014-0.569 0.113-0.724 0.325-0.094 0.129-0.146 0.261-0.11 0.421 0.187 0.846 2.337 0.741 3.022 1.189 0.435 0.285 0.77 0.797 0.867 1.307 0.097 0.522-0.028 1.061-0.342 1.487-0.525 0.724-1.335 0.985-2.177 1.114-0.78 0.047-1.684-0.162-2.309-0.637-0.585-0.446-0.796-0.993-0.876-1.697 0.555 0.001 1.111-0.004 1.667-0.015 0.033 0.105 0.069 0.206 0.121 0.303 0.242 0.446 0.725 0.546 1.173 0.677 0.296-0.068 0.696-0.144 0.906-0.383 0.127-0.145 0.171-0.395 0.118-0.579-0.205-0.707-2.265-0.79-2.98-1.23-0.423-0.261-0.734-0.64-0.847-1.13-0.102-0.444-0.063-0.943 0.187-1.332 0.451-0.704 1.073-0.993 1.857-1.18z"></path>
      <path d="M69.643 22.324c0.519-0.042 1.028-0.039 1.534 0.098 0.584 0.158 1.204 0.484 1.5 1.038 0.142 0.265 0.251 0.742 0.156 1.037-0.473 0.102-1.051 0.033-1.537 0.028-0.072-0.241-0.132-0.426-0.328-0.593-0.247-0.207-0.569-0.305-0.89-0.27-0.251 0.026-0.574 0.149-0.714 0.374-0.084 0.134-0.118 0.272-0.065 0.426 0.304 0.895 2.124 0.682 2.832 1.086 0.451 0.258 0.828 0.711 0.956 1.218 0.138 0.544 0.047 1.149-0.267 1.618-0.469 0.699-1.214 0.962-2.001 1.115-0.772 0.096-1.666-0.069-2.311-0.514-0.663-0.457-0.862-1.030-1.010-1.779l1.653-0.012c0.1 0.253 0.192 0.45 0.406 0.625 0.285 0.234 0.624 0.34 0.992 0.291 0.285-0.038 0.566-0.169 0.737-0.408 0.111-0.157 0.167-0.347 0.114-0.538-0.207-0.735-2.032-0.689-2.757-1.080-0.489-0.264-0.877-0.702-1.032-1.241-0.132-0.456-0.077-0.93 0.164-1.34 0.4-0.679 1.133-1.010 1.869-1.18z"></path>
      <path d="M49.293 20.622c0.549 0.019 1.102 0.007 1.651 0.010-0.006 0.62 0.003 1.24 0.027 1.859l1.629 0.001-0.004 1.42-1.551-0.001c0.001 0.893-0.204 3.198 0.206 3.888 0.32 0.252 0.959 0.158 1.348 0.154l-0.006 1.176c0.004 0.121 0.003 0.183-0.059 0.288-0.217 0.104-0.439 0.127-0.678 0.129-0.63 0.005-1.5-0.108-1.953-0.581-0.91-0.947-0.619-3.735-0.615-5.057l-1.051 0.002 0.003-1.423 1.047 0.007 0.005-1.873z"></path>
      <path d="M63.452 20.614l1.62 0.009c-0.012 0.621 0.013 1.244 0.025 1.865l1.655-0.003-0.002 1.426-1.558-0.001c0.019 0.851-0.189 3.226 0.196 3.869 0.414 0.247 0.933 0.181 1.398 0.18-0.006 0.41 0.002 0.82 0.004 1.231l-0.020 0.155c-0.16 0.17-0.407 0.162-0.626 0.168-0.665 0.016-1.585-0.089-2.067-0.595-0.901-0.943-0.62-3.691-0.612-5.009l-1.108 0.001c-0.014-0.472-0.009-0.946-0.012-1.418l1.104 0.006 0.003-1.884z"></path>
      <path d="M28.497 19.553c0.085-0.004 0.168-0.005 0.253 0.007 0.265 0.038 0.526 0.166 0.672 0.399 0.155 0.247 0.176 0.575 0.197 0.861 0.105 1.414 0.027 2.886 0.027 4.305-0 1.159 0.128 2.731-0.087 3.847-0.068 0.351-0.3 0.519-0.579 0.709-0.106 0.013-0.217 0.027-0.324 0.021-0.239-0.013-0.466-0.12-0.62-0.302-0.153-0.181-0.148-0.543-0.162-0.77-0.097-1.627-0.015-3.306-0.014-4.938 0.001-0.927-0.127-2.702 0.068-3.53 0.070-0.296 0.337-0.451 0.57-0.609z"></path>
      <path d="M47.285 22.466l0.233-0.003c0.276 0.308 0.139 1.286 0.13 1.691-0.583-0.006-1.135-0.029-1.591 0.394-0.857 0.795-0.568 3.708-0.577 4.876-0.459-0.004-1.354 0.164-1.705-0.129l-0.018-0.29c0.008-2.166-0.046-4.331-0.032-6.497 0.556 0.017 1.114 0.005 1.671 0.003l-0.020 0.957c0.103-0.148 0.206-0.307 0.325-0.442 0.422-0.476 0.994-0.519 1.584-0.561z"></path>
      <path d="M53.612 22.495l1.748 0.001 0.004 6.933-1.768-0.003 0.016-6.931z"></path>
      <path d="M26.057 21.825c0.287 0.053 0.541 0.161 0.708 0.41 0.258 0.384 0.265 4.151 0.136 4.689-0.071 0.294-0.325 0.437-0.566 0.579-0.276-0.017-0.639-0.041-0.823-0.28-0.274-0.356-0.252-4.359-0.095-4.861 0.091-0.292 0.391-0.415 0.641-0.536z"></path>
      <path d="M54.37 19.638c0.519-0.061 0.993 0.302 1.069 0.819s-0.273 1.001-0.787 1.093c-0.347 0.062-0.7-0.070-0.921-0.344s-0.276-0.646-0.143-0.973c0.133-0.326 0.432-0.554 0.782-0.595z"></path>
    </symbol>
    <symbol id="icon-burger" viewBox="0 0 32 32">
      <path d="M5.333 8h21.333v2.667h-21.333v-2.667zM10.667 14.667h16v2.667h-16v-2.667zM17.333 21.333h9.333v2.667h-9.333v-2.667z"></path>
    </symbol>
    <symbol id="icon-close" viewBox="0 0 32 32">
      <path d="M21.589 8.459l-5.657 5.656-5.656-5.656-1.885 1.885 5.656 5.656-5.656 5.656 1.885 1.885 5.656-5.656 5.657 5.656 1.885-1.885-5.656-5.656 5.656-5.656-1.885-1.885z"></path>
    </symbol>
    <symbol id="icon-icon" viewBox="0 0 17 32">
      <path d="M0 31.563l17.067-14.933-17.067-14.933v29.867z"></path>
    </symbol>
    <symbol id="icon-arrow" viewBox="0 0 30 32">
      <path d="M29.242 16.215l-3.017-3.017-9.158 9.159v-20.45h-4.267v20.45l-9.158-9.159-3.017 3.017 14.308 14.308 14.308-14.308z"></path>
    </symbol>
    <symbol id="icon-down" viewBox="0 0 52 32">
      <path d="M43.172 3.172l-17.172 17.172-17.172-17.172-5.656 5.656 22.828 22.828 22.828-22.828-5.656-5.656z"></path>
    </symbol>
    <symbol id="icon-up" viewBox="0 0 52 32">
      <path d="M3.172 23.172l5.656 5.656 17.172-17.172 17.172 17.172 5.656-5.656-22.828-22.828-22.828 22.828z"></path>
    </symbol>
    <symbol id="icon-attantion" viewBox="0 0 32 32">
      <path d="M15.927 0.314c-8.609 0-15.613 7.037-15.613 15.686s7.037 15.686 15.686 15.686c8.649 0 15.686-7.037 15.686-15.686s-7.070-15.686-15.76-15.686zM16.001 28.549c-6.919 0-12.549-5.63-12.549-12.549s5.595-12.549 12.475-12.549c6.962 0 12.623 5.63 12.623 12.549s-5.63 12.549-12.549 12.549z"></path>
      <path d="M14.432 8.157h3.137v10.98h-3.137v-10.98zM14.432 20.706h3.137v3.137h-3.137v-3.137z"></path>
    </symbol>
    <symbol id="icon-right-arrow" viewBox="0 0 31 32">
      <path d="M7.086 28.654c0.207 0.108 0.44 0.157 0.673 0.143s0.458-0.092 0.65-0.224l16.64-11.52c0.17-0.118 0.309-0.275 0.405-0.458s0.146-0.387 0.146-0.594-0.050-0.411-0.146-0.594c-0.096-0.183-0.235-0.34-0.405-0.458l-16.64-11.52c-0.192-0.134-0.417-0.212-0.65-0.227s-0.466 0.035-0.674 0.143c-0.207 0.109-0.381 0.272-0.501 0.472s-0.184 0.43-0.183 0.664v23.040c-0 0.234 0.064 0.463 0.185 0.663s0.294 0.363 0.501 0.471zM8.96 6.924l13.111 9.076-13.111 9.076v-18.153z"></path>
    </symbol>
    <symbol id="icon-Youtube" viewBox="0 0 31 32">
      <path d="M27.639 9.493c-0.146-0.541-0.431-1.034-0.826-1.431s-0.888-0.683-1.429-0.83c-2.004-0.55-10.024-0.559-10.024-0.559s-8.018-0.009-10.024 0.517c-0.54 0.154-1.032 0.444-1.428 0.842s-0.683 0.892-0.833 1.433c-0.529 2.004-0.534 6.162-0.534 6.162s-0.005 4.178 0.52 6.162c0.294 1.097 1.158 1.964 2.257 2.259 2.025 0.55 10.022 0.559 10.022 0.559s8.019 0.009 10.024-0.516c0.541-0.147 1.034-0.432 1.431-0.828s0.683-0.888 0.831-1.429c0.53-2.003 0.534-6.159 0.534-6.159s0.026-4.179-0.521-6.184zM12.795 19.479l0.006-7.68 6.665 3.846-6.671 3.834z"></path>
    </symbol>
    <symbol id="icon-feedback-arrow" viewBox="0 0 14 14">
      <path d="M5.293 12.2549L6.707 13.6689L13.414 6.96188L6.707 0.254883L5.293 1.66888L9.586 5.96188H0V7.96188H9.586L5.293 12.2549Z" fill="white"/>
    </symbol>
    <symbol id="icon-search" viewBox="0 0 32 32">
      <path d="M13.474 26.947c2.989-0.001 5.893-1.001 8.248-2.843l7.404 7.404 2.381-2.381-7.404-7.404c1.843-2.355 2.844-5.259 2.845-8.249 0-7.429-6.045-13.474-13.474-13.474s-13.474 6.045-13.474 13.474c0 7.429 6.045 13.474 13.474 13.474zM13.474 3.368c5.573 0 10.105 4.532 10.105 10.105s-4.532 10.105-10.105 10.105c-5.573 0-10.105-4.532-10.105-10.105s4.532-10.105 10.105-10.105z"></path>
    </symbol>
    <symbol id="icon-logo-icon" viewBox="0 0 32 32">
      <path fill="#fff" style="fill: var(--color1, #fff)" d="M17.501 3.14c0.384-0.041 0.83 0.039 1.2 0.144 0.838 0.238 1.518 0.747 1.922 1.474 0.42 0.745 0.501 1.617 0.224 2.417-0.352 0.988-1.105 1.484-2.047 1.94l0.011 2.881c0.673 0.191 1.328 0.407 1.939 0.737 1.404 0.758 2.365 2.038 2.768 3.493 0.426 1.526 0.183 3.147-0.673 4.507-0.786 1.233-2.039 2.144-3.539 2.493-1.959 0.456-3.621-0.038-5.305-0.971-0.744 0.742-1.48 1.492-2.206 2.25 0.325 0.713 0.432 1.461 0.217 2.219-0.21 0.741-0.768 1.376-1.48 1.751-0.799 0.421-1.709 0.498-2.584 0.264-0.869-0.232-1.6-0.733-2.024-1.487-0.418-0.741-0.453-1.61-0.182-2.401 0.308-0.899 0.936-1.453 1.819-1.864 0.95-0.346 1.736-0.232 2.664 0.079 0.772-0.757 1.5-1.553 2.28-2.304-0.858-1.567-1.135-2.902-0.689-4.629-0.971-0.422-1.907-0.914-2.879-1.337-0.519 0.504-1.154 0.849-1.899 0.965-0.889 0.139-1.826-0.087-2.556-0.573-0.724-0.489-1.2-1.233-1.317-2.059-0.12-0.8 0.106-1.683 0.656-2.314 0.567-0.652 1.448-1.045 2.337-1.131 0.874-0.079 1.745 0.169 2.422 0.69 0.865 0.675 1.115 1.514 1.22 2.515 0.921 0.526 1.975 0.932 2.935 1.401 1.248-1.375 2.16-1.809 3.98-2.332l0.002-2.859c-0.326-0.121-0.651-0.269-0.935-0.464-0.718-0.495-1.189-1.24-1.306-2.065-0.108-0.821 0.141-1.648 0.691-2.297 0.601-0.702 1.404-1.022 2.336-1.137zM21.512 17.362c-0.185-1.967-2.040-3.425-4.152-3.265-2.131 0.162-3.713 1.908-3.526 3.892s2.072 3.448 4.2 3.262c2.11-0.185 3.663-1.922 3.478-3.889z"></path>
      <path fill="#fff" style="fill: var(--color1, #fff)" d="M27.617 12.585c0.090-0.004 0.178-0.005 0.267 0.007 0.28 0.038 0.556 0.164 0.71 0.393 0.164 0.243 0.186 0.567 0.209 0.849 0.111 1.394 0.029 2.844 0.028 4.243-0 1.142 0.136 2.691-0.092 3.791-0.072 0.346-0.318 0.511-0.612 0.698-0.112 0.013-0.23 0.027-0.343 0.021-0.253-0.013-0.492-0.118-0.656-0.298-0.162-0.178-0.157-0.535-0.171-0.759-0.103-1.603-0.016-3.258-0.014-4.866 0.001-0.914-0.134-2.663 0.072-3.479 0.074-0.292 0.356-0.445 0.603-0.6z"></path>
      <path fill="#fff" style="fill: var(--color1, #fff)" d="M25.036 14.825c0.303 0.052 0.572 0.158 0.749 0.404 0.273 0.379 0.28 4.091 0.143 4.621-0.075 0.29-0.344 0.431-0.599 0.57-0.292-0.016-0.676-0.040-0.871-0.276-0.29-0.351-0.266-4.296-0.101-4.791 0.096-0.287 0.413-0.409 0.678-0.528z"></path>
    </symbol>
    <symbol id="icon-Youtube" viewBox="0 0 31 32">
      <path d="M28.089 10.063c-0.148-0.55-0.438-1.051-0.84-1.454s-0.903-0.694-1.452-0.843c-2.037-0.559-10.187-0.568-10.187-0.568s-8.148-0.009-10.187 0.526c-0.549 0.156-1.049 0.451-1.451 0.856s-0.694 0.907-0.846 1.457c-0.537 2.037-0.542 6.262-0.542 6.262s-0.005 4.246 0.528 6.262c0.299 1.115 1.177 1.995 2.293 2.296 2.058 0.559 10.185 0.568 10.185 0.568s8.15 0.009 10.187-0.524c0.55-0.149 1.051-0.439 1.454-0.841s0.694-0.903 0.845-1.452c0.539-2.036 0.542-6.259 0.542-6.259s0.026-4.247-0.529-6.284zM13.003 20.212l0.006-7.805 6.773 3.909-6.78 3.896z"></path>
    </symbol>
    <symbol id="icon-Instagram" viewBox="0 0 31 32">
      <path d="M20.813 4.912h-10.407c-3.592 0-6.504 2.912-6.504 6.504v10.406c0 3.592 2.912 6.504 6.504 6.504h10.407c3.592 0 6.504-2.912 6.504-6.504v-10.406c0-3.592-2.912-6.504-6.504-6.504zM25.041 21.822c-0.007 2.332-1.896 4.221-4.228 4.228h-10.407c-2.332-0.007-4.22-1.896-4.228-4.228v-10.406c0.007-2.332 1.896-4.221 4.228-4.228h10.407c2.332 0.007 4.221 1.896 4.228 4.228v10.406zM21.789 11.741c-0.718 0-1.301-0.582-1.301-1.301s0.582-1.301 1.301-1.301c0.718 0 1.301 0.582 1.301 1.301s-0.582 1.301-1.301 1.301zM15.61 10.765c1.554-0.004 3.044 0.612 4.143 1.711s1.714 2.589 1.711 4.143c0 3.233-2.621 5.854-5.854 5.854s-5.854-2.621-5.854-5.854c0-3.233 2.621-5.854 5.854-5.854zM12.033 16.619c0 1.976 1.602 3.577 3.577 3.577s3.577-1.602 3.577-3.577c0-1.976-1.602-3.577-3.577-3.577s-3.577 1.602-3.577 3.577z"></path>
    </symbol>
    <symbol id="icon-Facebook" viewBox="0 0 31 32">
      <path d="M28.618 16.699c0-7.228-5.824-13.088-13.008-13.088s-13.008 5.86-13.008 13.088c0 6.532 4.757 11.947 10.976 12.929v-9.146h-3.303v-3.783h3.303v-2.883c0-3.28 1.942-5.092 4.913-5.092 1.423 0 2.912 0.256 2.912 0.256v3.221h-1.64c-1.616 0-2.12 1.009-2.12 2.044v2.455h3.608l-0.577 3.783h-3.031v9.146c6.219-0.982 10.976-6.396 10.976-12.929z"></path>
    </symbol>
  </defs>
</svg>