<svg aria-hidden="true" style="position: absolute; width: 0; height: 0; overflow: hidden;" version="1.1" xmlns="http://www.w3.org/2000/svg" xmlns:xlink="http://www.w3.org/1999/xlink">
<defs>
<symbol id="icon-right-arrow" viewBox="0 0 31 32">
<path d="M7.086 28.654c0.207 0.108 0.44 0.157 0.673 0.143s0.458-0.092 0.65-0.224l16.64-11.52c0.17-0.118 0.309-0.275 0.405-0.458s0.146-0.387 0.146-0.594-0.050-0.411-0.146-0.594c-0.096-0.183-0.235-0.34-0.405-0.458l-16.64-11.52c-0.192-0.134-0.417-0.212-0.65-0.227s-0.466 0.035-0.674 0.143c-0.207 0.109-0.381 0.272-0.501 0.472s-0.184 0.43-0.183 0.664v23.040c-0 0.234 0.064 0.463 0.185 0.663s0.294 0.363 0.501 0.471zM8.96 6.924l13.111 9.076-13.111 9.076v-18.153z"></path>
</symbol>
</defs>
</svg>
